<?xml version="1.0" standalone="no"?>
<!DOCTYPE svg PUBLIC "-//W3C//DTD SVG 20010904//EN"
 "http://www.w3.org/TR/2001/REC-SVG-20010904/DTD/svg10.dtd">
<svg version="1.0" xmlns="http://www.w3.org/2000/svg"
 width="600.000000pt" height="600.000000pt" viewBox="0 0 600.000000 600.000000"
 preserveAspectRatio="xMidYMid meet">
<metadata>
Created by potrace 1.14, written by Peter Selinger 2001-2017
</metadata>
<g transform="translate(0.000000,600.000000) scale(0.100000,-0.100000)"
fill="#000000" stroke="none">
<path d="M2738 5105 c-2 -1 -39 -6 -84 -9 -269 -22 -609 -143 -845 -302 -230
-154 -460 -382 -607 -601 -126 -188 -242 -446 -277 -618 -44 -222 -49 -272
-50 -500 0 -240 15 -378 64 -562 10 -40 16 -73 13 -73 -4 0 -2 -4 3 -8 6 -4
19 -32 29 -62 90 -259 284 -551 512 -771 74 -70 265 -229 277 -229 2 0 31 -18
63 -39 33 -22 109 -64 169 -95 98 -50 106 -56 75 -56 -20 0 -46 -7 -58 -16
-22 -15 -22 -19 -22 -238 0 -269 -2 -265 100 -267 99 -2 96 -3 107 46 11 50
14 47 -59 48 -37 1 -38 1 -39 41 -2 89 1 280 6 284 2 3 26 5 52 6 48 1 48 1
45 33 -3 28 -1 31 17 26 20 -5 21 -12 22 -157 0 -83 0 -190 0 -237 l-2 -87 33
-3 c75 -9 77 -7 76 84 0 129 -1 127 26 127 31 0 32 -7 32 -117 -1 -87 0 -93
19 -94 11 0 33 -2 48 -3 16 -1 31 3 34 8 4 5 6 97 6 203 0 209 -2 202 55 187
22 -6 22 -8 20 -153 -2 -110 -6 -145 -15 -144 -9 2 -13 -12 -13 -47 0 -28 3
-50 8 -51 4 0 42 -1 85 -2 76 -2 77 -2 78 23 0 14 2 35 3 47 2 13 -1 23 -6 23
-4 0 -11 0 -15 0 -11 0 -19 110 -15 207 3 79 5 82 25 79 12 -3 27 -5 33 -5 9
-1 12 -53 11 -181 0 -99 3 -183 6 -187 6 -5 48 -7 86 -4 5 1 8 53 8 116 -1 62
1 111 5 107 3 -4 19 -47 34 -97 l27 -90 33 100 32 100 1 -116 1 -117 46 -4
c29 -2 48 1 51 8 2 7 5 92 6 190 2 156 4 179 18 182 9 2 19 -4 23 -13 3 -10 2
-14 -5 -9 -8 4 -8 1 -2 -12 5 -11 9 -92 9 -181 -1 -175 -4 -165 49 -165 54 0
53 -2 52 69 l-1 68 62 1 c97 1 102 9 102 164 0 119 1 128 20 133 11 3 20 1 20
-4 0 -6 22 -9 50 -8 27 2 53 -1 57 -5 4 -4 8 -30 9 -57 1 -56 -9 -66 -63 -63
-33 2 -33 2 -33 -41 l0 -44 47 -3 48 -3 1 -45 c1 -65 -1 -67 -63 -65 l-55 1 6
-45 c3 -24 7 -45 9 -47 1 -1 20 -3 42 -4 152 -7 162 1 164 130 1 68 -2 98 -13
115 -12 18 -13 24 -2 28 9 4 12 33 11 110 -1 57 -5 109 -9 115 -3 6 4 14 16
18 92 29 307 153 448 258 185 138 400 374 527 577 128 205 230 476 264 703 6
39 13 82 16 96 9 42 12 442 3 490 -4 25 -10 65 -13 90 -11 84 -46 235 -78 330
-76 227 -175 407 -354 637 -53 69 -258 268 -345 335 -271 209 -609 356 -905
394 -22 3 -51 8 -65 11 -27 5 -436 13 -442 8z m-327 -4024 c1 -3 2 -32 3 -63
1 -45 -2 -58 -15 -61 -32 -8 -42 9 -41 67 0 31 1 60 1 65 1 9 50 2 52 -8z
m907 -109 l3 -91 -28 3 c-15 2 -30 4 -33 5 -3 0 -4 36 -3 78 1 61 5 80 19 90
32 23 39 9 42 -85z m-362 36 c-3 -13 -6 -27 -6 -33 0 -5 -5 -3 -10 5 -15 23
-12 50 6 50 12 0 15 -6 10 -22z"/>
<path d="M3710 1168 c0 -7 14 -65 31 -128 17 -63 32 -122 34 -130 1 -8 9 -35
16 -60 6 -25 13 -76 14 -115 2 -38 3 -72 4 -75 0 -3 16 -4 33 -3 18 1 42 2 53
2 19 1 21 7 20 64 -1 44 12 114 47 247 26 102 48 191 48 198 0 9 -14 12 -52
10 l-52 -3 -22 -110 c-25 -128 -27 -126 -58 45 l-11 65 -53 3 c-38 2 -52 -1
-52 -10z"/>
</g>
</svg>
